<?xml version="1.0" encoding="utf-8"?>
<!-- Generator: Adobe Illustrator 26.0.0, SVG Export Plug-In . SVG Version: 6.00 Build 0)  -->
<svg version="1.1" xmlns="http://www.w3.org/2000/svg" xmlns:xlink="http://www.w3.org/1999/xlink" x="0px" y="0px"
	 viewBox="0 0 20 20" style="enable-background:new 0 0 20 20;" xml:space="preserve">
<style type="text/css">
	.st0{fill:#808080;}
	.st1{fill:#F63395;}
	.st2{opacity:0.8;}
	.st3{fill:#00CCFF;}
	.st4{fill:#FF0000;}
	.st5{fill:#006EF8;}
	.st6{opacity:0.8;fill:#00D954;}
	.st7{fill:#A436D2;}
	.st8{fill:#FFBB36;}
	.st9{fill:#00D954;}
	.st10{opacity:0.8;fill:#00CCFF;}
	.st11{opacity:0.8;fill-rule:evenodd;clip-rule:evenodd;fill:#FF1753;}
	.st12{fill-rule:evenodd;clip-rule:evenodd;fill:url(#SVGID_1_);}
	.st13{fill-rule:evenodd;clip-rule:evenodd;fill:#00C9D0;}
	.st14{fill:url(#SVGID_00000152260433613412334820000010977672047396516775_);}
	.st15{fill-rule:evenodd;clip-rule:evenodd;fill:url(#SVGID_00000170268151039637024410000016454683313521756856_);}
	.st16{fill:url(#SVGID_00000118376604958694915130000009715063726126195861_);}
	.st17{fill:url(#SVGID_00000143592609401462594470000010653963809383212454_);}
	.st18{fill:url(#SVGID_00000113316794176798258980000004648942674754848685_);}
	.st19{fill:url(#SVGID_00000105393555568836799490000005468430314812172179_);}
	.st20{fill:url(#SVGID_00000082360857286984047470000017075097584744433307_);}
	.st21{fill:url(#SVGID_00000017475724755780381460000008712883581016326078_);}
	.st22{fill:url(#SVGID_00000116203065978478990980000011100853523483425161_);}
	.st23{fill:url(#SVGID_00000039118028489087922340000004076300143491044754_);}
	.st24{fill:url(#SVGID_00000178917768336988891950000017591040285913308079_);}
	.st25{fill:url(#SVGID_00000130615473304286651740000006675001560907471777_);}
	.st26{fill:url(#SVGID_00000141430454321703251600000014795420499214934937_);}
	.st27{fill:url(#SVGID_00000178910296828148005640000014043566838270261642_);}
	.st28{fill:url(#SVGID_00000024703427031881968150000011075893961254444936_);}
	.st29{fill:url(#SVGID_00000035495229085367881670000005480060652803491739_);}
	.st30{fill-rule:evenodd;clip-rule:evenodd;fill:url(#SVGID_00000083787580461763269510000017775068245330265735_);}
	.st31{fill:url(#SVGID_00000152255064815239080270000009624828261015619721_);}
	.st32{fill:#5865F2;}
	.st33{fill:url(#SVGID_00000003824336378940251020000011017694175528399014_);}
	.st34{fill-rule:evenodd;clip-rule:evenodd;fill:#FFFFFF;}
	.st35{fill-rule:evenodd;clip-rule:evenodd;}
	.st36{fill:#FFFFFF;}
	.st37{fill:url(#SVGID_00000142138209807915971880000001218830751836044962_);}
	.st38{fill:#2CB5E5;}
</style>
<g id="LINES">
</g>
<g id="ELEMENTS">
	<g>
		<path class="st36" d="M16.9,3.7c-1.3-0.6-2.7-1-4.1-1.3c-0.2,0.3-0.4,0.7-0.5,1.1c-1.5-0.2-3.1-0.2-4.6,0C7.6,3.1,7.4,2.7,7.2,2.4
			C5.7,2.6,4.4,3.1,3,3.7c-2.6,3.9-3.3,7.7-3,11.4c1.5,1.1,3.2,2,5.1,2.6c0.4-0.6,0.8-1.1,1.1-1.8c-0.6-0.2-1.2-0.5-1.7-0.8
			c0.1-0.1,0.3-0.2,0.4-0.3c3.2,1.5,6.9,1.5,10.1,0c0.1,0.1,0.3,0.2,0.4,0.3c-0.5,0.3-1.1,0.6-1.7,0.8c0.3,0.6,0.7,1.2,1.1,1.8
			c1.8-0.6,3.5-1.4,5.1-2.6C20.3,10.7,19.2,7,16.9,3.7z M6.7,12.8c-1,0-1.8-0.9-1.8-2c0-1.1,0.8-2,1.8-2c1,0,1.8,0.9,1.8,2
			S7.7,12.8,6.7,12.8z M13.3,12.8c-1,0-1.8-0.9-1.8-2c0-1.1,0.8-2,1.8-2c1,0,1.8,0.9,1.8,2S14.3,12.8,13.3,12.8z"/>
	</g>
</g>
</svg>
