<?xml version="1.0" encoding="utf-8"?>
<!-- Generator: Adobe Illustrator 26.0.0, SVG Export Plug-In . SVG Version: 6.00 Build 0)  -->
<svg version="1.1" id="Layer_1" xmlns="http://www.w3.org/2000/svg" xmlns:xlink="http://www.w3.org/1999/xlink" x="0px" y="0px"
	 viewBox="0 0 20 20" style="enable-background:new 0 0 20 20;" xml:space="preserve">
<style type="text/css">
	.st0{fill:#FFFDFD;}
</style>
<g id="LINES">
</g>
<g id="ELEMENTS">
	<g>
		<path class="st0" d="M15.3,3.6c-0.6,0-1.2,0.5-1.2,1.2c0,0.6,0.5,1.2,1.2,1.2c0.6,0,1.2-0.5,1.2-1.2S15.9,3.6,15.3,3.6z"/>
		<path class="st0" d="M10.1,5.1c-2.7,0-4.9,2.2-4.9,4.9s2.2,4.9,4.9,4.9S15,12.7,15,10S12.8,5.1,10.1,5.1z M10.1,13.2
			c-1.7,0-3.2-1.4-3.2-3.2c0-1.7,1.4-3.2,3.2-3.2c1.7,0,3.2,1.4,3.2,3.2C13.2,11.7,11.8,13.2,10.1,13.2z"/>
		<path class="st0" d="M14,20H6c-3.3,0-6-2.7-6-6V6c0-3.3,2.7-6,6-6h8c3.3,0,6,2.7,6,6v8C20,17.3,17.3,20,14,20z M6,1.9
			C3.7,1.9,1.9,3.7,1.9,6v8c0,2.3,1.9,4.1,4.1,4.1h8c2.3,0,4.1-1.9,4.1-4.1V6c0-2.3-1.9-4.1-4.1-4.1C14,1.9,6,1.9,6,1.9z"/>
	</g>
</g>
</svg>
