<?xml version="1.0" encoding="utf-8"?>
<!-- Generator: Adobe Illustrator 26.0.0, SVG Export Plug-In . SVG Version: 6.00 Build 0)  -->
<svg version="1.1" xmlns="http://www.w3.org/2000/svg" xmlns:xlink="http://www.w3.org/1999/xlink" x="0px" y="0px"
	 viewBox="0 0 20 20" style="enable-background:new 0 0 20 20;" xml:space="preserve">
<style type="text/css">
	.st0{fill:#808080;}
	.st1{fill:#F63395;}
	.st2{opacity:0.8;}
	.st3{fill:#00CCFF;}
	.st4{fill:#FF0000;}
	.st5{fill:#006EF8;}
	.st6{opacity:0.8;fill:#00D954;}
	.st7{fill:#A436D2;}
	.st8{fill:#FFBB36;}
	.st9{fill:#00D954;}
	.st10{opacity:0.8;fill:#00CCFF;}
	.st11{opacity:0.8;fill-rule:evenodd;clip-rule:evenodd;fill:#FF1753;}
	.st12{fill-rule:evenodd;clip-rule:evenodd;fill:url(#SVGID_1_);}
	.st13{fill-rule:evenodd;clip-rule:evenodd;fill:#00C9D0;}
	.st14{fill:url(#SVGID_00000148653598756784324230000013524288676095627925_);}
	.st15{fill-rule:evenodd;clip-rule:evenodd;fill:url(#SVGID_00000160159054100690016660000008248321797063653528_);}
	.st16{fill:url(#SVGID_00000037650776000635774140000009315511078155091611_);}
	.st17{fill:url(#SVGID_00000029745854353217810420000011454023175618354342_);}
	.st18{fill:url(#SVGID_00000062894539316836158650000018334965223696579495_);}
	.st19{fill:url(#SVGID_00000097483245638380051230000002995763158100313493_);}
	.st20{fill:url(#SVGID_00000026852209424698399830000001887101011333822639_);}
	.st21{fill:url(#SVGID_00000113351212982689274950000011812386734208726924_);}
	.st22{fill:url(#SVGID_00000179614579581227025240000001000886022651872927_);}
	.st23{fill:url(#SVGID_00000122721206111551550170000002379083888013750410_);}
	.st24{fill:url(#SVGID_00000051380602614069928130000015318706143587857281_);}
	.st25{fill:url(#SVGID_00000021083222340493981240000017958093452242588061_);}
	.st26{fill:url(#SVGID_00000116944621685614474280000009210301005653057956_);}
	.st27{fill:url(#SVGID_00000181767204081410864710000012292269011715954578_);}
	.st28{fill:url(#SVGID_00000172431790592014245510000010602880087805672884_);}
	.st29{fill:url(#SVGID_00000153665919485755157140000013302507162254364808_);}
	.st30{fill-rule:evenodd;clip-rule:evenodd;fill:url(#SVGID_00000036219858685501001810000001184713002350618035_);}
	.st31{fill:url(#SVGID_00000057868417243819796630000012938838912887820969_);}
	.st32{fill:#5865F2;}
	.st33{fill:url(#SVGID_00000059289675688399357130000011279584049509590423_);}
	.st34{fill-rule:evenodd;clip-rule:evenodd;fill:#FFFFFF;}
	.st35{fill-rule:evenodd;clip-rule:evenodd;}
	.st36{fill:#FFFFFF;}
	.st37{fill:url(#SVGID_00000016789834117740222650000010113046917447708852_);}
	.st38{fill:#2CB5E5;}
</style>
<g id="LINES">
</g>
<g id="ELEMENTS">
	<path class="st36" d="M18.1,8.2c-0.2,0-0.3,0-0.5,0c-1.7,0-3.3-0.9-4.2-2.3v7.8c0,3.2-2.6,5.8-5.8,5.8c-3.2,0-5.8-2.6-5.8-5.8
		S4.5,8,7.6,8l0,0C7.8,8,7.9,8,8,8v2.8c-0.1,0-0.2,0-0.4,0c-1.6,0-2.9,1.3-2.9,2.9c0,1.6,1.3,2.9,2.9,2.9c1.6,0,3.1-1.3,3.1-2.9
		l0-13.3h2.7c0.3,2.4,2.2,4.3,4.7,4.5L18.1,8.2"/>
</g>
</svg>
