<?xml version="1.0" encoding="utf-8"?>
<!-- Generator: Adobe Illustrator 26.0.0, SVG Export Plug-In . SVG Version: 6.00 Build 0)  -->
<svg version="1.1" xmlns="http://www.w3.org/2000/svg" xmlns:xlink="http://www.w3.org/1999/xlink" x="0px" y="0px"
	 viewBox="0 0 20 20" style="enable-background:new 0 0 20 20;" xml:space="preserve">
<style type="text/css">
	.st0{fill:#808080;}
	.st1{fill:#F63395;}
	.st2{opacity:0.8;}
	.st3{fill:#00CCFF;}
	.st4{fill:#FF0000;}
	.st5{fill:#006EF8;}
	.st6{opacity:0.8;fill:#00D954;}
	.st7{fill:#A436D2;}
	.st8{fill:#FFBB36;}
	.st9{fill:#00D954;}
	.st10{opacity:0.8;fill:#00CCFF;}
	.st11{opacity:0.8;fill-rule:evenodd;clip-rule:evenodd;fill:#FF1753;}
	.st12{fill-rule:evenodd;clip-rule:evenodd;fill:url(#SVGID_1_);}
	.st13{fill-rule:evenodd;clip-rule:evenodd;fill:#00C9D0;}
	.st14{fill:url(#SVGID_00000160148734031302900900000012174687372146492072_);}
	.st15{fill-rule:evenodd;clip-rule:evenodd;fill:url(#SVGID_00000078766155965708985620000003358932151172136381_);}
	.st16{fill:url(#SVGID_00000162342881875808839190000016172352625498161561_);}
	.st17{fill:url(#SVGID_00000114033357439599238790000001287977289697880234_);}
	.st18{fill:url(#SVGID_00000036937818789402277250000000111114195620355220_);}
	.st19{fill:url(#SVGID_00000005235751193497709420000007359791058829080479_);}
	.st20{fill:url(#SVGID_00000073692499875602098440000004215305792357911962_);}
	.st21{fill:url(#SVGID_00000098213375949485802450000012969454415029086338_);}
	.st22{fill:url(#SVGID_00000065780812424069684030000013200172297003506308_);}
	.st23{fill:url(#SVGID_00000123407092992751861090000000160525425734245280_);}
	.st24{fill:url(#SVGID_00000051375403762855873370000009851094656151641229_);}
	.st25{fill:url(#SVGID_00000157993153582890504110000004779679172675467455_);}
	.st26{fill:url(#SVGID_00000124845168797449581880000014303060472561168262_);}
	.st27{fill:url(#SVGID_00000141434777444566413490000006424641979406390660_);}
	.st28{fill:url(#SVGID_00000111906788779259150790000017856743666482249127_);}
	.st29{fill:url(#SVGID_00000012446701354679004520000010771564165126821560_);}
	.st30{fill-rule:evenodd;clip-rule:evenodd;fill:url(#SVGID_00000121242610139721859700000014524421787510483118_);}
	.st31{fill:url(#SVGID_00000154391132158373334570000006631405408477613714_);}
	.st32{fill:#5865F2;}
	.st33{fill:url(#SVGID_00000048491796215567909640000008642781660782558863_);}
	.st34{fill-rule:evenodd;clip-rule:evenodd;fill:#FFFFFF;}
	.st35{fill-rule:evenodd;clip-rule:evenodd;}
	.st36{fill:#FFFFFF;}
	.st37{fill:url(#SVGID_00000139984126145878077840000006647618793040896956_);}
	.st38{fill:#2CB5E5;}
</style>
<g id="LINES">
</g>
<g id="ELEMENTS">
	<path class="st36" d="M19.9,3.7c-0.6,0.3-1.3,0.5-2,0.6c0.3-0.1,0.8-0.6,1-0.9c0.3-0.4,0.5-0.8,0.7-1.2c0,0,0-0.1,0-0.1
		c0,0-0.1,0-0.1,0c-0.8,0.4-1.6,0.7-2.4,0.9c-0.1,0-0.1,0-0.2,0c-0.1-0.1-0.1-0.2-0.2-0.2c-0.4-0.3-0.7-0.5-1.2-0.7
		c-0.6-0.2-1.2-0.3-1.8-0.3c-0.6,0-1.2,0.2-1.7,0.5c-0.5,0.3-1,0.7-1.4,1.1C10.3,3.8,10,4.4,9.9,5c-0.1,0.6-0.1,1.1,0,1.7
		c0,0.1,0,0.1-0.1,0.1c-3.3-0.5-6-1.7-8.2-4.2c-0.1-0.1-0.1-0.1-0.2,0C0.3,4.1,0.8,6.4,2,7.6C2.1,7.7,2.3,7.9,2.5,8
		C2.4,8,1.6,7.9,0.9,7.6c-0.1-0.1-0.1,0-0.2,0.1c0,0.2,0,0.3,0,0.5C1,9.6,2,11,3.4,11.5c0.2,0.1,0.3,0.1,0.5,0.2
		c-0.3,0.1-0.6,0.1-1.6,0c-0.1,0-0.2,0-0.1,0.1c0.7,1.9,2.2,2.4,3.3,2.7c0.1,0,0.3,0,0.4,0.1c0,0,0,0,0,0c-0.4,0.6-1.6,1-2.2,1.2
		c-1.1,0.4-2.3,0.5-3.4,0.4c-0.2,0-0.2,0-0.3,0c-0.1,0,0,0.1,0.1,0.1c0.2,0.2,0.5,0.3,0.7,0.4c0.7,0.4,1.5,0.7,2.3,0.9
		c4.1,1.1,8.7,0.3,11.7-2.7c2.4-2.4,3.3-5.7,3.3-9c0-0.1,0.2-0.2,0.2-0.3c0.6-0.5,1.1-1,1.6-1.7C20,3.9,20,3.8,19.9,3.7
		C20,3.8,20,3.7,19.9,3.7C20,3.7,20,3.7,19.9,3.7z"/>
</g>
</svg>
